<?xml version="1.0" encoding="UTF-8" standalone="no"?>
<!DOCTYPE svg PUBLIC "-//W3C//DTD SVG 1.1//EN"
 "http://www.w3.org/Graphics/SVG/1.1/DTD/svg11.dtd">
<!-- Generated by graphviz version 2.43.0 (0)
 -->
<!-- Title: router Pages: 1 -->
<svg width="813pt" height="46pt"
 viewBox="0.00 0.00 813.00 46.00" xmlns="http://www.w3.org/2000/svg" xmlns:xlink="http://www.w3.org/1999/xlink">
<g id="graph0" class="graph" transform="scale(1 1) rotate(0) translate(4 42)">
<title>router</title>
<polygon fill="white" stroke="transparent" points="-4,4 -4,-42 809,-42 809,4 -4,4"/>
<!-- Input -->
<g id="node1" class="node">
<title>Input</title>
<polygon fill="lightgray" stroke="black" points="0,-1 0,-37 344,-37 344,-1 0,-1"/>
<text text-anchor="middle" x="52" y="-15.3" font-family="Times,serif" font-size="14.00">Input Buffer</text>
<polyline fill="none" stroke="black" points="104,-1 104,-37 "/>
<text text-anchor="middle" x="128" y="-15.3" font-family="Times,serif" font-size="14.00">CH1</text>
<polyline fill="none" stroke="black" points="152,-1 152,-37 "/>
<text text-anchor="middle" x="176" y="-15.3" font-family="Times,serif" font-size="14.00">CH2</text>
<polyline fill="none" stroke="black" points="200,-1 200,-37 "/>
<text text-anchor="middle" x="224" y="-15.3" font-family="Times,serif" font-size="14.00">CH3</text>
<polyline fill="none" stroke="black" points="248,-1 248,-37 "/>
<text text-anchor="middle" x="272" y="-15.3" font-family="Times,serif" font-size="14.00">CH4</text>
<polyline fill="none" stroke="black" points="296,-1 296,-37 "/>
<text text-anchor="middle" x="320" y="-15.3" font-family="Times,serif" font-size="14.00">CH5</text>
</g>
<!-- Router -->
<g id="node2" class="node">
<title>Router</title>
<polygon fill="white" stroke="black" points="509,-38 380,-38 380,0 509,0 509,-38"/>
<text text-anchor="middle" x="444.5" y="-22.8" font-family="Times,serif" font-size="14.00">Router</text>
<text text-anchor="middle" x="444.5" y="-7.8" font-family="Times,serif" font-size="14.00">(channel select)</text>
</g>
<!-- Input&#45;&gt;Router -->
<g id="edge1" class="edge">
<title>Input&#45;&gt;Router</title>
<path fill="none" stroke="black" d="M344.31,-19C353.08,-19 361.64,-19 369.81,-19"/>
<polygon fill="black" stroke="black" points="369.95,-22.5 379.95,-19 369.95,-15.5 369.95,-22.5"/>
</g>
<!-- Output -->
<g id="node3" class="node">
<title>Output</title>
<polygon fill="lightgray" stroke="black" points="545,-1 545,-37 805,-37 805,-1 545,-1"/>
<text text-anchor="middle" x="603" y="-15.3" font-family="Times,serif" font-size="14.00">Output Buffer</text>
<polyline fill="none" stroke="black" points="661,-1 661,-37 "/>
<text text-anchor="middle" x="685" y="-15.3" font-family="Times,serif" font-size="14.00">CH2</text>
<polyline fill="none" stroke="black" points="709,-1 709,-37 "/>
<text text-anchor="middle" x="733" y="-15.3" font-family="Times,serif" font-size="14.00">CH5</text>
<polyline fill="none" stroke="black" points="757,-1 757,-37 "/>
<text text-anchor="middle" x="781" y="-15.3" font-family="Times,serif" font-size="14.00">CH1</text>
</g>
<!-- Router&#45;&gt;Output -->
<g id="edge2" class="edge">
<title>Router&#45;&gt;Output</title>
<path fill="none" stroke="black" d="M509.15,-19C517.31,-19 525.89,-19 534.69,-19"/>
<polygon fill="black" stroke="black" points="534.69,-22.5 544.69,-19 534.69,-15.5 534.69,-22.5"/>
</g>
</g>
</svg>
